{
    "asset" : {
        "generator" : "Khronos glTF Blender I/O v1.6.16",
        "version" : "2.0"
    },
    "scene" : 0,
    "scenes" : [
        {
            "name" : "Scene",
            "nodes" : [
                0,
                1,
                2
            ]
        }
    ],
    "nodes" : [
        {
            "mesh" : 0,
            "name" : "Cube",
            "rotation" : [
                0.5001139044761658,
                -0.49999281764030457,
                -0.49988606572151184,
                0.500007152557373
            ],
            "translation" : [
                0.2954770624637604,
                -0.11231769621372223,
                0.1325383186340332
            ]
        },
        {
            "mesh" : 1,
            "name" : "Cube.001",
            "rotation" : [
                0.3959241509437561,
                4.796683060703799e-05,
                -0.9182831645011902,
                0.00011116264795418829
            ],
            "translation" : [
                -0.0008416920900344849,
                0.014906719326972961,
                -0.15416693687438965
            ]
        },
        {
            "mesh" : 2,
            "name" : "cubehollow_04_center",
            "rotation" : [
                0.5001139640808105,
                -0.49999284744262695,
                -0.49988606572151184,
                0.500007152557373
            ],
            "translation" : [
                0.11622320115566254,
                0.15671628713607788,
                -0.04047355800867081
            ]
        }
    ],
    "meshes" : [
        {
            "name" : "Cube.004",
            "primitives" : [
                {
                    "attributes" : {
                        "POSITION" : 0,
                        "NORMAL" : 1,
                        "TEXCOORD_0" : 2
                    },
                    "indices" : 3
                }
            ]
        },
        {
            "name" : "Cube.005",
            "primitives" : [
                {
                    "attributes" : {
                        "POSITION" : 4,
                        "NORMAL" : 5,
                        "TEXCOORD_0" : 6
                    },
                    "indices" : 3
                }
            ]
        },
        {
            "name" : "cubehollow_04_center",
            "primitives" : [
                {
                    "attributes" : {
                        "POSITION" : 7,
                        "NORMAL" : 8
                    },
                    "indices" : 9
                }
            ]
        }
    ],
    "accessors" : [
        {
            "bufferView" : 0,
            "componentType" : 5126,
            "count" : 24,
            "max" : [
                0.07500000298023224,
                0.07500000298023224,
                0.07500000298023224
            ],
            "min" : [
                -0.07500000298023224,
                -0.07500000298023224,
                -0.07500000298023224
            ],
            "type" : "VEC3"
        },
        {
            "bufferView" : 1,
            "componentType" : 5126,
            "count" : 24,
            "type" : "VEC3"
        },
        {
            "bufferView" : 2,
            "componentType" : 5126,
            "count" : 24,
            "type" : "VEC2"
        },
        {
            "bufferView" : 3,
            "componentType" : 5123,
            "count" : 36,
            "type" : "SCALAR"
        },
        {
            "bufferView" : 4,
            "componentType" : 5126,
            "count" : 24,
            "max" : [
                0.10000000149011612,
                0.20000000298023224,
                0.10000000149011612
            ],
            "min" : [
                -0.10000000149011612,
                -0.20000000298023224,
                -0.10000000149011612
            ],
            "type" : "VEC3"
        },
        {
            "bufferView" : 5,
            "componentType" : 5126,
            "count" : 24,
            "type" : "VEC3"
        },
        {
            "bufferView" : 6,
            "componentType" : 5126,
            "count" : 24,
            "type" : "VEC2"
        },
        {
            "bufferView" : 7,
            "componentType" : 5126,
            "count" : 82,
            "max" : [
                0.40000003576278687,
                0.40000003576278687,
                0.4000000059604645
            ],
            "min" : [
                -0.40000003576278687,
                -0.40000003576278687,
                -0.4000000059604645
            ],
            "type" : "VEC3"
        },
        {
            "bufferView" : 8,
            "componentType" : 5126,
            "count" : 82,
            "type" : "VEC3"
        },
        {
            "bufferView" : 9,
            "componentType" : 5123,
            "count" : 84,
            "type" : "SCALAR"
        }
    ],
    "bufferViews" : [
        {
            "buffer" : 0,
            "byteLength" : 288,
            "byteOffset" : 0
        },
        {
            "buffer" : 0,
            "byteLength" : 288,
            "byteOffset" : 288
        },
        {
            "buffer" : 0,
            "byteLength" : 192,
            "byteOffset" : 576
        },
        {
            "buffer" : 0,
            "byteLength" : 72,
            "byteOffset" : 768
        },
        {
            "buffer" : 0,
            "byteLength" : 288,
            "byteOffset" : 840
        },
        {
            "buffer" : 0,
            "byteLength" : 288,
            "byteOffset" : 1128
        },
        {
            "buffer" : 0,
            "byteLength" : 192,
            "byteOffset" : 1416
        },
        {
            "buffer" : 0,
            "byteLength" : 984,
            "byteOffset" : 1608
        },
        {
            "buffer" : 0,
            "byteLength" : 984,
            "byteOffset" : 2592
        },
        {
            "buffer" : 0,
            "byteLength" : 168,
            "byteOffset" : 3576
        }
    ],
    "buffers" : [
        {
            "byteLength" : 3744,
            "uri" : "data:application/octet-stream;base64,"
        }
    ]
}
